<svg width="239" height="238" viewBox="0 0 239 238" fill="none" xmlns="http://www.w3.org/2000/svg">
    <path d="M149.881 160.457C144.554 157.189 142.872 150.214 146.196 144.913C149.48 139.612 156.489 137.938 161.815 141.246C164.298 142.8 167.061 143.996 169.945 144.793C172.748 145.59 175.712 146.029 178.755 146.029C187.606 146.029 195.616 142.442 201.423 136.702C207.23 130.923 210.794 122.952 210.794 114.143C210.794 105.335 207.19 97.3638 201.423 91.5846C195.616 85.8054 187.606 82.2581 178.755 82.2581C172.228 82.2581 166.02 84.2111 160.814 87.7185C155.608 91.2259 151.443 96.2079 149 102.186C148.96 102.266 148.92 102.386 148.879 102.465L146.196 109.6C146.076 110.038 145.916 110.477 145.716 110.875L123.008 171.138C122.087 173.57 120.365 175.682 117.922 177.037C112.476 180.106 105.547 178.193 102.464 172.733L83.9212 140.09L64.6581 172.812C63.4166 174.925 61.4943 176.639 59.0513 177.595C53.2043 179.907 46.6364 177.037 44.3136 171.258L6.26776 76.1202C3.94497 70.3011 6.78839 63.7647 12.6354 61.453C18.4825 59.1413 25.0504 62.011 27.3732 67.7902L56.8086 141.405L74.3497 111.632C77.5135 106.252 84.4819 104.418 89.8884 107.607C91.8508 108.763 93.3326 110.397 94.2937 112.27L110.313 140.449L124.45 102.864C124.65 102.067 124.851 101.27 124.931 100.512C125.051 99.7552 125.091 98.8783 125.091 97.8819C125.091 94.534 124.21 91.3056 122.648 88.5555C121.046 85.7257 118.763 83.3343 115.92 81.6204C110.513 78.4319 108.791 71.457 111.995 66.1162C115.239 60.7356 122.207 59.0217 127.574 62.2103C132.94 65.3988 137.386 69.7033 140.75 74.6854C143.032 72.5331 145.475 70.5403 148.038 68.8265C156.929 62.848 167.542 59.5 178.715 59.5C193.854 59.5 207.59 65.5981 217.482 75.4825C227.414 85.3669 233.541 98.9979 233.541 114.064C233.541 129.13 227.414 142.8 217.482 152.645C207.55 162.529 193.854 168.627 178.715 168.627C173.629 168.627 168.583 167.91 163.697 166.515C158.932 165.2 154.286 163.167 149.881 160.457ZM59.8923 76.9971C57.0889 71.4171 59.3717 64.6415 64.9785 61.8515C70.5852 59.0616 77.3934 61.3334 80.1968 66.9133L87.8059 82.0588C90.6093 87.6388 88.3266 94.4144 82.7198 97.2442C77.1131 100.034 70.3049 97.7624 67.5015 92.1824L59.8923 76.9971Z" fill="#1577F5"/>
</svg>
